<svg version="1.1" id="Layer_1" xmlns="http://www.w3.org/2000/svg" xmlns:xlink="http://www.w3.org/1999/xlink" x="0px" y="0px"
	 width="100%" viewBox="0 0 1280 1280" enable-background="new 0 0 1280 1280" xml:space="preserve">
<path fill="#000000" opacity="1.000000" stroke="none" 
	d="
M941.000000,1.000003 
	C1054.322876,1.000000 1167.645752,1.000000 1280.968628,0.999999 
	C1280.979126,1.156173 1280.998779,1.312347 1280.998779,1.468521 
	C1281.000122,427.929077 1281.000000,854.389648 1281.000000,1280.925049 
	C854.422729,1280.925049 427.845398,1280.925049 1.134048,1280.925049 
	C1.134048,854.333374 1.134048,427.666687 1.134048,1.000000 
	C93.105049,1.000000 185.096573,1.000000 277.843506,1.298366 
	C277.927277,2.704697 277.436829,3.990158 276.553986,4.891140 
	C271.690369,9.854612 266.613617,14.612745 261.829895,19.650183 
	C253.083801,28.860146 244.493988,38.218479 235.832855,47.509232 
	C234.363068,49.085869 232.670166,50.493500 231.410309,52.219997 
	C226.459396,59.004726 221.671585,65.908188 216.763245,72.724373 
	C212.243149,79.001411 207.330322,85.020401 203.160339,91.518723 
	C197.537216,100.281563 192.450424,109.389061 187.153275,118.360344 
	C185.288559,121.518440 183.308197,124.625244 181.690521,127.908157 
	C179.347382,132.663361 177.360245,137.592560 175.088943,142.384842 
	C170.111862,152.886047 164.643738,163.176849 160.157074,173.880936 
	C156.696335,182.137421 154.514709,190.923248 151.598770,199.416885 
	C148.848740,207.427216 145.417770,215.233154 143.139175,223.367874 
	C140.761917,231.854797 139.542740,240.659256 137.556213,249.264603 
	C135.901123,256.434204 133.379288,263.431335 132.119553,270.657959 
	C130.324677,280.954498 129.287415,291.385529 128.023361,301.770874 
	C127.588135,305.346619 127.492645,308.962341 127.155113,312.551636 
	C126.467819,319.859924 125.027054,327.172211 125.127235,334.465912 
	C125.451920,358.104492 126.237434,381.738861 127.084084,405.366302 
	C127.244148,409.833313 128.574219,414.250000 129.229858,418.709686 
	C130.145172,424.935608 130.643204,431.236877 131.846558,437.403107 
	C133.550339,446.133728 135.763794,454.764038 137.705551,463.449249 
	C139.843079,473.010193 141.466476,482.714111 144.150894,492.116791 
	C146.803848,501.409149 150.369461,510.452942 153.774567,519.515686 
	C158.248779,531.423889 162.661880,543.370483 167.664490,555.059509 
	C171.294830,563.542175 175.799301,571.653870 179.986588,579.894104 
	C184.675980,589.122437 188.678650,598.816833 194.350388,607.403259 
	C204.655319,623.004028 215.644470,638.186157 226.976547,653.064270 
	C235.586929,664.369019 244.649384,675.428406 254.434784,685.718140 
	C272.962524,705.200867 292.153931,724.044128 313.827148,740.148315 
	C320.148987,744.845642 326.013367,750.176514 332.463501,754.678223 
	C339.036865,759.265991 346.003113,763.309814 352.923065,767.377869 
	C363.782410,773.761719 374.555267,780.335022 385.720032,786.145447 
	C397.484253,792.267761 409.562744,797.821533 421.700134,803.179260 
	C430.032745,806.857483 438.610504,810.041992 447.241241,812.967712 
	C457.845154,816.562195 468.561188,819.859131 479.333984,822.913513 
	C490.742523,826.148132 502.175690,829.432495 513.781006,831.798035 
	C525.167175,834.118958 536.757812,835.518188 548.305298,836.944946 
	C561.056030,838.520325 573.852600,840.683838 586.641968,840.773865 
	C608.537964,840.928040 630.470764,840.123596 652.335815,838.833923 
	C665.858215,838.036316 679.420898,836.304260 692.719788,833.724670 
	C711.398682,830.101440 729.977783,825.783569 748.365967,820.885742 
	C772.983704,814.328552 796.642517,804.794312 819.431641,793.586487 
	C838.545471,784.186096 857.021973,773.344116 875.149048,762.120361 
	C897.531189,748.261841 918.087219,731.736206 937.327454,713.837097 
	C951.341675,700.799683 964.125305,686.409973 977.109680,672.302979 
	C992.607422,655.465332 1006.014160,636.971069 1017.916748,617.464172 
	C1026.173706,603.931824 1033.698486,589.948120 1041.388428,576.076294 
	C1045.149414,569.291809 1048.596436,562.330383 1052.075439,555.393799 
	C1053.738403,552.078064 1055.291382,548.690857 1056.638306,545.236206 
	C1060.055542,536.471619 1063.343628,527.656372 1066.653198,518.850098 
	C1068.717773,513.356873 1071.015991,507.928802 1072.683350,502.315247 
	C1074.452271,496.359680 1075.457275,490.181854 1077.047974,484.167755 
	C1079.852417,473.565918 1083.253784,463.104797 1085.630005,452.412476 
	C1087.393433,444.477600 1087.918701,436.268524 1089.016968,428.184479 
	C1089.682495,423.287018 1090.549561,418.410919 1091.033691,413.496399 
	C1091.547241,408.282379 1091.587891,403.022583 1092.067505,397.804138 
	C1092.583008,392.196228 1093.783447,386.625305 1093.946899,381.016724 
	C1094.248901,370.656708 1094.078613,360.280426 1093.980713,349.912048 
	C1093.892944,340.603699 1093.895020,331.282501 1093.371948,321.994293 
	C1092.987061,315.157227 1091.741333,308.372467 1091.021362,301.549438 
	C1090.208740,293.850586 1089.867920,286.088837 1088.739746,278.440338 
	C1087.726685,271.570953 1085.871826,264.828491 1084.499023,258.007751 
	C1084.028931,255.672150 1084.160645,253.198853 1083.556885,250.909866 
	C1081.741211,244.026123 1079.560059,237.237885 1077.787231,230.344009 
	C1076.255615,224.388138 1075.593994,218.167862 1073.637573,212.371658 
	C1070.873657,204.182709 1067.264526,196.279419 1064.029785,188.248764 
	C1060.719238,180.030014 1057.765625,171.647003 1054.047485,163.617538 
	C1047.573486,149.636459 1040.895142,135.735199 1033.796631,122.063202 
	C1028.875854,112.585884 1023.118103,103.542381 1017.708069,94.320465 
	C1016.058228,91.508026 1014.482605,88.630409 1012.582520,85.991859 
	C1010.238342,82.736771 1007.243774,79.914581 1005.148438,76.523354 
	C1001.072815,69.927032 996.412231,63.819710 991.442688,57.892506 
	C983.978394,48.989910 976.931580,39.725769 969.237244,31.031357 
	C963.158630,24.162659 956.295227,17.994242 949.933105,11.368239 
	C946.778137,8.082399 943.966797,4.466538 941.000000,1.000003 
z"/>
<path fill="#FFFFFF" opacity="1.000000" stroke="none" 
	d="
M940.531372,1.000003 
	C943.966797,4.466538 946.778137,8.082399 949.933105,11.368239 
	C956.295227,17.994242 963.158630,24.162659 969.237244,31.031357 
	C976.931580,39.725769 983.978394,48.989910 991.442688,57.892506 
	C996.412231,63.819710 1001.072815,69.927032 1005.148438,76.523354 
	C1007.243774,79.914581 1010.238342,82.736771 1012.582520,85.991859 
	C1014.482605,88.630409 1016.058228,91.508026 1017.708069,94.320465 
	C1023.118103,103.542381 1028.875854,112.585884 1033.796631,122.063202 
	C1040.895142,135.735199 1047.573486,149.636459 1054.047485,163.617538 
	C1057.765625,171.647003 1060.719238,180.030014 1064.029785,188.248764 
	C1067.264526,196.279419 1070.873657,204.182709 1073.637573,212.371658 
	C1075.593994,218.167862 1076.255615,224.388138 1077.787231,230.344009 
	C1079.560059,237.237885 1081.741211,244.026123 1083.556885,250.909866 
	C1084.160645,253.198853 1084.028931,255.672150 1084.499023,258.007751 
	C1085.871826,264.828491 1087.726685,271.570953 1088.739746,278.440338 
	C1089.867920,286.088837 1090.208740,293.850586 1091.021362,301.549438 
	C1091.741333,308.372467 1092.987061,315.157227 1093.371948,321.994293 
	C1093.895020,331.282501 1093.892944,340.603699 1093.980713,349.912048 
	C1094.078613,360.280426 1094.248901,370.656708 1093.946899,381.016724 
	C1093.783447,386.625305 1092.583008,392.196228 1092.067505,397.804138 
	C1091.587891,403.022583 1091.547241,408.282379 1091.033691,413.496399 
	C1090.549561,418.410919 1089.682495,423.287018 1089.016968,428.184479 
	C1087.918701,436.268524 1087.393433,444.477600 1085.630005,452.412476 
	C1083.253784,463.104797 1079.852417,473.565918 1077.047974,484.167755 
	C1075.457275,490.181854 1074.452271,496.359680 1072.683350,502.315247 
	C1071.015991,507.928802 1068.717773,513.356873 1066.653198,518.850098 
	C1063.343628,527.656372 1060.055542,536.471619 1056.638306,545.236206 
	C1055.291382,548.690857 1053.738403,552.078064 1052.075439,555.393799 
	C1048.596436,562.330383 1045.149414,569.291809 1041.388428,576.076294 
	C1033.698486,589.948120 1026.173706,603.931824 1017.916748,617.464172 
	C1006.014160,636.971069 992.607422,655.465332 977.109680,672.302979 
	C964.125305,686.409973 951.341675,700.799683 937.327454,713.837097 
	C918.087219,731.736206 897.531189,748.261841 875.149048,762.120361 
	C857.021973,773.344116 838.545471,784.186096 819.431641,793.586487 
	C796.642517,804.794312 772.983704,814.328552 748.365967,820.885742 
	C729.977783,825.783569 711.398682,830.101440 692.719788,833.724670 
	C679.420898,836.304260 665.858215,838.036316 652.335815,838.833923 
	C630.470764,840.123596 608.537964,840.928040 586.641968,840.773865 
	C573.852600,840.683838 561.056030,838.520325 548.305298,836.944946 
	C536.757812,835.518188 525.167175,834.118958 513.781006,831.798035 
	C502.175690,829.432495 490.742523,826.148132 479.333984,822.913513 
	C468.561188,819.859131 457.845154,816.562195 447.241241,812.967712 
	C438.610504,810.041992 430.032745,806.857483 421.700134,803.179260 
	C409.562744,797.821533 397.484253,792.267761 385.720032,786.145447 
	C374.555267,780.335022 363.782410,773.761719 352.923065,767.377869 
	C346.003113,763.309814 339.036865,759.265991 332.463501,754.678223 
	C326.013367,750.176514 320.148987,744.845642 313.827148,740.148315 
	C292.153931,724.044128 272.962524,705.200867 254.434784,685.718140 
	C244.649384,675.428406 235.586929,664.369019 226.976547,653.064270 
	C215.644470,638.186157 204.655319,623.004028 194.350388,607.403259 
	C188.678650,598.816833 184.675980,589.122437 179.986588,579.894104 
	C175.799301,571.653870 171.294830,563.542175 167.664490,555.059509 
	C162.661880,543.370483 158.248779,531.423889 153.774567,519.515686 
	C150.369461,510.452942 146.803848,501.409149 144.150894,492.116791 
	C141.466476,482.714111 139.843079,473.010193 137.705551,463.449249 
	C135.763794,454.764038 133.550339,446.133728 131.846558,437.403107 
	C130.643204,431.236877 130.145172,424.935608 129.229858,418.709686 
	C128.574219,414.250000 127.244148,409.833313 127.084084,405.366302 
	C126.237434,381.738861 125.451920,358.104492 125.127235,334.465912 
	C125.027054,327.172211 126.467819,319.859924 127.155113,312.551636 
	C127.492645,308.962341 127.588135,305.346619 128.023361,301.770874 
	C129.287415,291.385529 130.324677,280.954498 132.119553,270.657959 
	C133.379288,263.431335 135.901123,256.434204 137.556213,249.264603 
	C139.542740,240.659256 140.761917,231.854797 143.139175,223.367874 
	C145.417770,215.233154 148.848740,207.427216 151.598770,199.416885 
	C154.514709,190.923248 156.696335,182.137421 160.157074,173.880936 
	C164.643738,163.176849 170.111862,152.886047 175.088943,142.384842 
	C177.360245,137.592560 179.347382,132.663361 181.690521,127.908157 
	C183.308197,124.625244 185.288559,121.518440 187.153275,118.360344 
	C192.450424,109.389061 197.537216,100.281563 203.160339,91.518723 
	C207.330322,85.020401 212.243149,79.001411 216.763245,72.724373 
	C221.671585,65.908188 226.459396,59.004726 231.410309,52.219997 
	C232.670166,50.493500 234.363068,49.085869 235.832855,47.509232 
	C244.493988,38.218479 253.083801,28.860146 261.829895,19.650183 
	C266.613617,14.612745 271.690369,9.854612 276.553986,4.891140 
	C277.436829,3.990158 277.927277,2.704697 278.299438,1.298366 
	C498.687561,1.000000 719.375122,1.000000 940.531372,1.000003 
M596.600342,516.905945 
	C624.506409,548.978943 652.412476,581.051941 680.449524,613.275452 
	C683.365784,610.684509 685.943481,608.351257 688.567017,606.070679 
	C703.112427,593.426941 717.669006,580.795898 732.222046,568.160889 
	C748.517273,554.013306 764.822021,539.876831 781.105408,525.715820 
	C797.760254,511.231873 814.373779,496.700500 831.044373,482.234772 
	C842.184021,472.568420 853.422485,463.015961 864.561523,453.348816 
	C878.824097,440.971008 893.016968,428.512970 907.267029,416.120697 
	C916.003357,408.523315 924.800293,400.995544 933.552307,393.416016 
	C942.319397,385.823456 951.051392,378.190338 959.827698,370.608459 
	C962.212402,368.548340 962.861084,366.849762 960.332520,364.078033 
	C955.323914,358.587982 950.907349,352.562653 946.002625,346.972076 
	C931.253784,330.160858 916.292358,313.535675 901.591675,296.682770 
	C882.719116,275.047241 864.083923,253.204773 845.229980,231.552963 
	C817.722778,199.963806 790.095825,168.479050 762.551697,136.921997 
	C747.554810,119.740143 732.623535,102.500992 717.500000,85.100471 
	C715.620117,86.535393 713.845764,87.741089 712.238953,89.139420 
	C696.319458,102.993385 680.466309,116.923775 664.518311,130.744827 
	C644.313354,148.255173 624.037598,165.683899 603.274536,182.610748 
	C575.363831,150.497650 547.453125,118.384544 519.345886,86.045258 
	C516.837830,87.904655 514.735229,89.249649 512.877319,90.874352 
	C496.380035,105.300468 480.002350,119.864098 463.441223,134.216217 
	C439.591461,154.884735 415.546936,175.328674 391.717377,196.020325 
	C369.381561,215.414886 347.262512,235.058884 324.965912,254.498901 
	C297.530029,278.419769 269.992828,302.224396 242.536880,326.122314 
	C236.088242,331.735291 236.167801,331.805603 241.967651,338.348328 
	C243.064072,339.585205 243.995255,340.967834 245.081192,342.214783 
	C264.057251,364.004578 283.083435,385.750763 302.020996,407.573944 
	C322.807434,431.527679 343.462250,455.595703 364.271698,479.529358 
	C383.332916,501.452301 402.574371,523.218506 421.642487,545.135498 
	C438.435760,564.437744 455.075958,583.873169 471.839661,603.201294 
	C475.163208,607.033264 478.740540,610.645142 482.219574,614.378601 
	C520.499512,581.435181 558.284607,548.917664 596.600342,516.905945 
M762.223511,703.985107 
	C767.543274,701.783447 764.001282,697.654846 764.893372,693.998413 
	C758.514832,693.998413 752.701538,694.182617 746.907410,693.928711 
	C743.482056,693.778564 742.054321,695.079895 740.881592,698.275757 
	C736.449219,710.354858 731.656921,722.302795 726.931824,734.273132 
	C725.098755,738.916992 723.086548,743.490173 720.906372,748.690918 
	C714.054749,730.920105 707.587585,714.046692 700.986328,697.225891 
	C700.490295,695.961914 699.073425,694.193909 698.025208,694.152161 
	C691.104797,693.876648 684.168152,694.009827 677.300232,694.009827 
	C677.300232,697.629700 677.300232,700.557068 677.300232,703.701050 
	C679.635681,703.919128 681.695190,704.111450 683.646790,704.293701 
	C683.646790,721.731750 683.646790,738.792725 683.646790,755.824158 
	C676.340027,756.317566 675.894043,757.090576 677.622559,765.620300 
	C686.029114,765.620300 694.421814,765.620300 702.777710,765.620300 
	C703.349426,756.521667 703.349426,756.521667 695.252319,755.660461 
	C695.252319,744.046997 695.252319,732.404236 695.252319,719.322815 
	C701.196594,734.519165 706.576416,748.417603 712.126892,762.247498 
	C712.709534,763.699097 714.125305,765.566467 715.450073,765.847412 
	C723.498718,767.554443 725.667969,766.248352 728.676636,758.641724 
	C730.189026,754.817932 731.598145,750.953064 733.127014,747.136047 
	C736.814941,737.928589 740.545837,728.738342 744.675415,718.511047 
	C744.675415,731.782776 744.675415,743.818604 744.675415,755.825867 
	C736.231873,756.341187 735.656555,757.203430 737.770203,765.746155 
	C746.690063,765.746155 755.619202,765.746155 764.509583,765.746155 
	C765.775208,756.629517 765.719849,756.539734 758.009338,755.605164 
	C758.009338,739.209106 757.964172,722.750305 758.150208,706.294067 
	C758.158936,705.517090 760.221619,704.763306 762.223511,703.985107 
M516.222168,693.579712 
	C510.357239,696.703857 505.948792,701.182861 502.972717,707.184204 
	C497.054565,719.118164 496.802826,731.465698 499.806854,744.146667 
	C501.803284,752.574402 506.127136,759.300781 513.757690,763.650208 
	C519.581970,766.969971 525.976501,766.889771 532.462524,767.110229 
	C545.720886,767.560913 557.744141,758.535461 562.356323,746.785278 
	C566.593323,735.991333 567.089478,724.926880 564.680725,713.786499 
	C562.294495,702.750000 556.080627,694.276123 544.859619,691.271851 
	C535.546021,688.778198 525.941467,688.803406 516.222168,693.579712 
M450.761505,749.877014 
	C450.124847,749.353088 449.389832,748.912292 448.866516,748.292664 
	C442.363403,740.592346 442.394897,731.446411 442.881775,722.088318 
	C443.702271,706.317261 454.707245,701.229614 467.680542,705.078674 
	C471.091827,706.090759 472.669159,707.888489 472.001099,711.470093 
	C471.288605,715.289429 473.736328,716.434753 476.791077,716.851135 
	C483.379700,717.749268 485.908569,715.493713 485.927460,708.838684 
	C485.932678,707.006104 485.770294,705.157043 485.958344,703.343994 
	C486.490082,698.217712 483.942017,695.350464 479.454163,693.442749 
	C471.994446,690.271851 464.237030,689.521606 456.269073,689.999695 
	C446.493439,690.586182 438.418213,694.595520 432.688751,702.558044 
	C423.959412,714.689697 423.452972,728.204651 426.709930,742.223572 
	C428.309357,749.108032 431.608948,754.876160 436.812408,759.808960 
	C448.068634,770.479797 473.782776,768.300110 485.461792,761.617615 
	C487.197601,760.624512 488.533417,757.743042 488.781830,755.588501 
	C489.290283,751.179260 488.934326,746.670227 488.934326,742.252747 
	C495.274200,741.583679 495.855011,740.655823 496.021393,734.759094 
	C496.174591,729.328613 492.947144,728.461365 488.713104,728.458069 
	C483.548492,728.454102 478.383636,728.422363 473.219360,728.464172 
	C465.042633,728.530334 465.033905,728.829285 464.909485,736.833679 
	C464.814362,742.955688 469.304993,741.726074 472.821747,742.119141 
	C472.900146,746.650574 474.859161,751.842163 468.097168,752.646362 
	C462.401550,753.323608 456.515228,754.250916 450.761505,749.877014 
M614.850281,694.439880 
	C609.641663,693.293396 604.479736,691.565002 599.213074,691.143005 
	C592.111877,690.574036 584.930054,691.007507 577.782837,691.016968 
	C569.860657,691.027405 570.267578,691.051331 569.865234,698.851746 
	C569.565125,704.670898 573.815491,703.649536 576.873901,704.306335 
	C576.873901,720.675293 576.873901,736.642456 576.873901,752.885803 
	C576.001038,752.959473 575.223389,752.996399 574.453491,753.094604 
	C568.182678,753.894470 570.324890,758.767822 570.022095,762.390625 
	C569.657043,766.758179 572.898621,765.963440 575.469299,765.993652 
	C578.633545,766.030823 581.798523,766.002563 584.963196,766.002563 
	C590.880981,766.002563 596.798767,766.002563 603.178345,766.002563 
	C602.945557,761.684326 603.877869,757.483093 602.222046,755.026184 
	C600.883118,753.039429 596.426819,753.153503 593.242371,752.306152 
	C593.242371,747.803894 593.242371,743.055969 593.242371,738.517761 
	C598.560303,737.983337 603.795959,738.140076 608.637146,736.834229 
	C620.146301,733.729858 625.167725,724.843445 625.714661,713.790466 
	C626.102417,705.956055 623.058594,698.923767 614.850281,694.439880 
M635.623230,752.892883 
	C634.796326,752.960876 633.957214,752.961060 633.144470,753.107605 
	C626.981567,754.218750 629.340942,759.108032 629.054993,762.686951 
	C628.733826,766.706482 631.878540,765.972900 634.272827,765.991150 
	C639.765076,766.032959 645.257874,766.004517 650.750488,766.004517 
	C659.590271,766.004456 659.366272,766.011658 659.086792,757.330383 
	C658.919617,752.137329 654.535034,753.825195 652.290771,752.689941 
	C652.290771,736.228943 652.290771,720.151733 652.290771,704.090515 
	C659.007141,703.840881 659.007141,703.840881 659.004150,697.245422 
	C659.003845,696.579651 658.926575,695.903198 659.016968,695.249939 
	C659.421570,692.327698 658.079346,690.747681 655.234497,690.714355 
	C647.758118,690.626587 640.274475,690.534302 632.807861,690.816650 
	C631.509644,690.865723 629.438904,692.545349 629.157959,693.794250 
	C627.541870,700.979187 629.035156,703.164795 635.974670,704.679504 
	C635.974670,720.448425 635.974670,736.249268 635.623230,752.892883 
z"/>
<path fill="#F9CA01" opacity="1.000000" stroke="none" 
	d="
M596.069763,516.400085 
	C558.284607,548.917664 520.499512,581.435181 482.219574,614.378601 
	C478.740540,610.645142 475.163208,607.033264 471.839661,603.201294 
	C455.075958,583.873169 438.435760,564.437744 421.642487,545.135498 
	C402.574371,523.218506 383.332916,501.452301 364.271698,479.529358 
	C343.462250,455.595703 322.807434,431.527679 302.020996,407.573944 
	C283.083435,385.750763 264.057251,364.004578 245.081192,342.214783 
	C243.995255,340.967834 243.064072,339.585205 241.967651,338.348328 
	C236.167801,331.805603 236.088242,331.735291 242.536880,326.122314 
	C269.992828,302.224396 297.530029,278.419769 324.965912,254.498901 
	C347.262512,235.058884 369.381561,215.414886 391.717377,196.020325 
	C415.546936,175.328674 439.591461,154.884735 463.441223,134.216217 
	C480.002350,119.864098 496.380035,105.300468 512.877319,90.874352 
	C514.735229,89.249649 516.837830,87.904655 519.345886,86.045258 
	C547.453125,118.384544 575.363831,150.497650 603.389526,183.227417 
	C603.165833,184.211258 602.858826,184.614822 602.484131,184.940491 
	C547.819153,232.452881 493.153870,279.964813 438.446625,327.428467 
	C437.354523,328.375946 435.769501,328.755280 434.256897,329.474609 
	C463.776886,363.431244 491.926361,395.811371 520.318298,428.470398 
	C582.257629,374.633789 643.861877,321.088470 705.666931,267.368652 
	C731.101990,296.642670 756.144531,325.464966 781.281494,354.395874 
	C780.064453,355.512970 779.351013,356.199005 778.605286,356.847809 
	C753.878967,378.359100 729.163086,399.882355 704.417114,421.371002 
	C674.518433,447.334076 644.564575,473.233673 614.704163,499.240601 
	C608.339172,504.784180 602.273376,510.671265 596.069763,516.400085 
z"/>
<path fill="#010119" opacity="1.000000" stroke="none" 
	d="
M596.335083,516.653015 
	C602.273376,510.671265 608.339172,504.784180 614.704163,499.240601 
	C644.564575,473.233673 674.518433,447.334076 704.417114,421.371002 
	C729.163086,399.882355 753.878967,378.359100 778.605286,356.847809 
	C779.351013,356.199005 780.064453,355.512970 781.281494,354.395874 
	C756.144531,325.464966 731.101990,296.642670 705.666931,267.368652 
	C643.861877,321.088470 582.257629,374.633789 520.318298,428.470398 
	C491.926361,395.811371 463.776886,363.431244 434.256897,329.474609 
	C435.769501,328.755280 437.354523,328.375946 438.446625,327.428467 
	C493.153870,279.964813 547.819153,232.452881 602.484131,184.940491 
	C602.858826,184.614822 603.165833,184.211258 603.648376,183.495941 
	C624.037598,165.683899 644.313354,148.255173 664.518311,130.744827 
	C680.466309,116.923775 696.319458,102.993385 712.238953,89.139420 
	C713.845764,87.741089 715.620117,86.535393 717.500000,85.100471 
	C732.623535,102.500992 747.554810,119.740143 762.551697,136.921997 
	C790.095825,168.479050 817.722778,199.963806 845.229980,231.552963 
	C864.083923,253.204773 882.719116,275.047241 901.591675,296.682770 
	C916.292358,313.535675 931.253784,330.160858 946.002625,346.972076 
	C950.907349,352.562653 955.323914,358.587982 960.332520,364.078033 
	C962.861084,366.849762 962.212402,368.548340 959.827698,370.608459 
	C951.051392,378.190338 942.319397,385.823456 933.552307,393.416016 
	C924.800293,400.995544 916.003357,408.523315 907.267029,416.120697 
	C893.016968,428.512970 878.824097,440.971008 864.561523,453.348816 
	C853.422485,463.015961 842.184021,472.568420 831.044373,482.234772 
	C814.373779,496.700500 797.760254,511.231873 781.105408,525.715820 
	C764.822021,539.876831 748.517273,554.013306 732.222046,568.160889 
	C717.669006,580.795898 703.112427,593.426941 688.567017,606.070679 
	C685.943481,608.351257 683.365784,610.684509 680.449524,613.275452 
	C652.412476,581.051941 624.506409,548.978943 596.335083,516.653015 
z"/>
<path fill="#F9CA02" opacity="1.000000" stroke="none" 
	d="
M761.775635,703.991943 
	C760.221619,704.763306 758.158936,705.517090 758.150208,706.294067 
	C757.964172,722.750305 758.009338,739.209106 758.009338,755.605164 
	C765.719849,756.539734 765.775208,756.629517 764.509583,765.746155 
	C755.619202,765.746155 746.690063,765.746155 737.770203,765.746155 
	C735.656555,757.203430 736.231873,756.341187 744.675415,755.825867 
	C744.675415,743.818604 744.675415,731.782776 744.675415,718.511047 
	C740.545837,728.738342 736.814941,737.928589 733.127014,747.136047 
	C731.598145,750.953064 730.189026,754.817932 728.676636,758.641724 
	C725.667969,766.248352 723.498718,767.554443 715.450073,765.847412 
	C714.125305,765.566467 712.709534,763.699097 712.126892,762.247498 
	C706.576416,748.417603 701.196594,734.519165 695.252319,719.322815 
	C695.252319,732.404236 695.252319,744.046997 695.252319,755.660461 
	C703.349426,756.521667 703.349426,756.521667 702.777710,765.620300 
	C694.421814,765.620300 686.029114,765.620300 677.622559,765.620300 
	C675.894043,757.090576 676.340027,756.317566 683.646790,755.824158 
	C683.646790,738.792725 683.646790,721.731750 683.646790,704.293701 
	C681.695190,704.111450 679.635681,703.919128 677.300232,703.701050 
	C677.300232,700.557068 677.300232,697.629700 677.300232,694.009827 
	C684.168152,694.009827 691.104797,693.876648 698.025208,694.152161 
	C699.073425,694.193909 700.490295,695.961914 700.986328,697.225891 
	C707.587585,714.046692 714.054749,730.920105 720.906372,748.690918 
	C723.086548,743.490173 725.098755,738.916992 726.931824,734.273132 
	C731.656921,722.302795 736.449219,710.354858 740.881592,698.275757 
	C742.054321,695.079895 743.482056,693.778564 746.907410,693.928711 
	C752.701538,694.182617 758.514832,693.998413 764.893372,693.998413 
	C764.001282,697.654846 767.543274,701.783447 761.775635,703.991943 
z"/>
<path fill="#03031B" opacity="1.000000" stroke="none" 
	d="
M516.546143,693.381775 
	C525.941467,688.803406 535.546021,688.778198 544.859619,691.271851 
	C556.080627,694.276123 562.294495,702.750000 564.680725,713.786499 
	C567.089478,724.926880 566.593323,735.991333 562.356323,746.785278 
	C557.744141,758.535461 545.720886,767.560913 532.462524,767.110229 
	C525.976501,766.889771 519.581970,766.969971 513.757690,763.650208 
	C506.127136,759.300781 501.803284,752.574402 499.806854,744.146667 
	C496.802826,731.465698 497.054565,719.118164 502.972717,707.184204 
	C505.948792,701.182861 510.357239,696.703857 516.546143,693.381775 
M524.055542,750.761536 
	C534.721252,756.248108 545.086609,750.115112 546.265686,740.854248 
	C547.303223,732.705261 547.538086,724.195557 546.374573,716.096985 
	C545.195435,707.890259 539.237549,703.987427 531.631531,703.976929 
	C523.609192,703.965942 518.967285,707.311646 516.962524,716.289368 
	C515.744263,721.745056 515.984863,727.586731 516.039307,733.250488 
	C516.102844,739.871216 517.984680,745.906738 524.055542,750.761536 
z"/>
<path fill="#04041B" opacity="1.000000" stroke="none" 
	d="
M451.090607,750.068848 
	C456.515228,754.250916 462.401550,753.323608 468.097168,752.646362 
	C474.859161,751.842163 472.900146,746.650574 472.821747,742.119141 
	C469.304993,741.726074 464.814362,742.955688 464.909485,736.833679 
	C465.033905,728.829285 465.042633,728.530334 473.219360,728.464172 
	C478.383636,728.422363 483.548492,728.454102 488.713104,728.458069 
	C492.947144,728.461365 496.174591,729.328613 496.021393,734.759094 
	C495.855011,740.655823 495.274200,741.583679 488.934326,742.252747 
	C488.934326,746.670227 489.290283,751.179260 488.781830,755.588501 
	C488.533417,757.743042 487.197601,760.624512 485.461792,761.617615 
	C473.782776,768.300110 448.068634,770.479797 436.812408,759.808960 
	C431.608948,754.876160 428.309357,749.108032 426.709930,742.223572 
	C423.452972,728.204651 423.959412,714.689697 432.688751,702.558044 
	C438.418213,694.595520 446.493439,690.586182 456.269073,689.999695 
	C464.237030,689.521606 471.994446,690.271851 479.454163,693.442749 
	C483.942017,695.350464 486.490082,698.217712 485.958344,703.343994 
	C485.770294,705.157043 485.932678,707.006104 485.927460,708.838684 
	C485.908569,715.493713 483.379700,717.749268 476.791077,716.851135 
	C473.736328,716.434753 471.288605,715.289429 472.001099,711.470093 
	C472.669159,707.888489 471.091827,706.090759 467.680542,705.078674 
	C454.707245,701.229614 443.702271,706.317261 442.881775,722.088318 
	C442.394897,731.446411 442.363403,740.592346 448.866516,748.292664 
	C449.389832,748.912292 450.124847,749.353088 451.090607,750.068848 
z"/>
<path fill="#020219" opacity="1.000000" stroke="none" 
	d="
M615.134521,694.691406 
	C623.058594,698.923767 626.102417,705.956055 625.714661,713.790466 
	C625.167725,724.843445 620.146301,733.729858 608.637146,736.834229 
	C603.795959,738.140076 598.560303,737.983337 593.242371,738.517761 
	C593.242371,743.055969 593.242371,747.803894 593.242371,752.306152 
	C596.426819,753.153503 600.883118,753.039429 602.222046,755.026184 
	C603.877869,757.483093 602.945557,761.684326 603.178345,766.002563 
	C596.798767,766.002563 590.880981,766.002563 584.963196,766.002563 
	C581.798523,766.002563 578.633545,766.030823 575.469299,765.993652 
	C572.898621,765.963440 569.657043,766.758179 570.022095,762.390625 
	C570.324890,758.767822 568.182678,753.894470 574.453491,753.094604 
	C575.223389,752.996399 576.001038,752.959473 576.873901,752.885803 
	C576.873901,736.642456 576.873901,720.675293 576.873901,704.306335 
	C573.815491,703.649536 569.565125,704.670898 569.865234,698.851746 
	C570.267578,691.051331 569.860657,691.027405 577.782837,691.016968 
	C584.930054,691.007507 592.111877,690.574036 599.213074,691.143005 
	C604.479736,691.565002 609.641663,693.293396 615.134521,694.691406 
M608.100769,717.489990 
	C611.370422,709.275879 603.532532,702.683655 593.233154,704.283264 
	C593.233154,711.107605 593.233154,717.965820 593.233154,724.806641 
	C602.763062,725.444702 605.327515,724.292969 608.100769,717.489990 
z"/>
<path fill="#03031A" opacity="1.000000" stroke="none" 
	d="
M635.798950,752.471497 
	C635.974670,736.249268 635.974670,720.448425 635.974670,704.679504 
	C629.035156,703.164795 627.541870,700.979187 629.157959,693.794250 
	C629.438904,692.545349 631.509644,690.865723 632.807861,690.816650 
	C640.274475,690.534302 647.758118,690.626587 655.234497,690.714355 
	C658.079346,690.747681 659.421570,692.327698 659.016968,695.249939 
	C658.926575,695.903198 659.003845,696.579651 659.004150,697.245422 
	C659.007141,703.840881 659.007141,703.840881 652.290771,704.090515 
	C652.290771,720.151733 652.290771,736.228943 652.290771,752.689941 
	C654.535034,753.825195 658.919617,752.137329 659.086792,757.330383 
	C659.366272,766.011658 659.590271,766.004456 650.750488,766.004517 
	C645.257874,766.004517 639.765076,766.032959 634.272827,765.991150 
	C631.878540,765.972900 628.733826,766.706482 629.054993,762.686951 
	C629.340942,759.108032 626.981567,754.218750 633.144470,753.107605 
	C633.957214,752.961060 634.796326,752.960876 635.798950,752.471497 
z"/>
<path fill="#FFFFFF" opacity="1.000000" stroke="none" 
	d="
M523.780701,750.496460 
	C517.984680,745.906738 516.102844,739.871216 516.039307,733.250488 
	C515.984863,727.586731 515.744263,721.745056 516.962524,716.289368 
	C518.967285,707.311646 523.609192,703.965942 531.631531,703.976929 
	C539.237549,703.987427 545.195435,707.890259 546.374573,716.096985 
	C547.538086,724.195557 547.303223,732.705261 546.265686,740.854248 
	C545.086609,750.115112 534.721252,756.248108 523.780701,750.496460 
z"/>
<path fill="#FFFFFF" opacity="1.000000" stroke="none" 
	d="
M608.069580,717.888184 
	C605.327515,724.292969 602.763062,725.444702 593.233154,724.806641 
	C593.233154,717.965820 593.233154,711.107605 593.233154,704.283264 
	C603.532532,702.683655 611.370422,709.275879 608.069580,717.888184 
z"/>
</svg>